<?xml version="1.0" encoding="UTF-8" standalone="no"?>
<!DOCTYPE svg PUBLIC "-//W3C//DTD SVG 1.1//EN"
 "http://www.w3.org/Graphics/SVG/1.1/DTD/svg11.dtd">
<!-- Generated by graphviz version 2.47.0 (20210316.0004)
 -->
<!-- Title: dependencies Pages: 1 -->
<svg width="1484pt" height="284pt"
 viewBox="0.00 0.00 1484.00 284.00" xmlns="http://www.w3.org/2000/svg" xmlns:xlink="http://www.w3.org/1999/xlink">
<g id="graph0" class="graph" transform="scale(1 1) rotate(0) translate(4 280)">
<title>dependencies</title>
<polygon fill="white" stroke="transparent" points="-4,4 -4,-280 1480,-280 1480,4 -4,4"/>
<text text-anchor="start" x="717.01" y="-42.4" font-family="Times-12" font-weight="bold" font-size="14.00">Legend</text>
<polygon fill="#ffffb3" stroke="transparent" points="504,-10 504,-30 524,-30 524,-10 504,-10"/>
<text text-anchor="start" x="527.63" y="-15.4" font-family="Times-12" font-size="14.00"> &#160;Declarations</text>
<polygon fill="#8dd3c7" stroke="transparent" points="617,-10 617,-30 637,-30 637,-10 617,-10"/>
<text text-anchor="start" x="640.73" y="-15.4" font-family="Times-12" font-size="14.00"> &#160;Module</text>
<polygon fill="#80b1d3" stroke="transparent" points="703,-10 703,-30 723,-30 723,-10 703,-10"/>
<text text-anchor="start" x="726.78" y="-15.4" font-family="Times-12" font-size="14.00"> &#160;Bootstrap</text>
<polygon fill="#fdb462" stroke="transparent" points="800,-10 800,-30 820,-30 820,-10 800,-10"/>
<text text-anchor="start" x="823.67" y="-15.4" font-family="Times-12" font-size="14.00"> &#160;Providers</text>
<polygon fill="#fb8072" stroke="transparent" points="896,-10 896,-30 916,-30 916,-10 896,-10"/>
<text text-anchor="start" x="919.73" y="-15.4" font-family="Times-12" font-size="14.00"> &#160;Exports</text>
<g id="clust1" class="cluster">
<title>cluster_AppModule</title>
<polygon fill="none" stroke="black" stroke-dasharray="1,5" points="8,-70 8,-268 1468,-268 1468,-70 8,-70"/>
</g>
<g id="clust10" class="cluster">
<title>cluster_AppModule_imports</title>
<polygon fill="none" stroke="black" points="1316,-78 1316,-130 1460,-130 1460,-78 1316,-78"/>
</g>
<g id="clust13" class="cluster">
<title>cluster_AppModule_providers</title>
<polygon fill="none" stroke="black" points="1092,-78 1092,-130 1308,-130 1308,-78 1092,-78"/>
</g>
<g id="clust12" class="cluster">
<title>cluster_AppModule_bootstrap</title>
<polygon fill="none" stroke="black" points="675,-208 675,-260 799,-260 799,-208 675,-208"/>
</g>
<g id="clust2" class="cluster">
<title>cluster_AppModule_declarations</title>
<polygon fill="none" stroke="black" points="16,-78 16,-130 1084,-130 1084,-78 16,-78"/>
</g>
<!-- AppComponent -->
<g id="node1" class="node">
<title>AppComponent</title>
<polygon fill="#ffffb3" stroke="black" points="1075.94,-122 970.06,-122 970.06,-86 1075.94,-86 1075.94,-122"/>
<text text-anchor="middle" x="1023" y="-99.8" font-family="Times,serif" font-size="14.00">AppComponent</text>
</g>
<!-- AppModule -->
<g id="node8" class="node">
<title>AppModule</title>
<polygon fill="#8dd3c7" stroke="black" points="778.66,-187 775.66,-191 754.66,-191 751.66,-187 695.34,-187 695.34,-151 778.66,-151 778.66,-187"/>
<text text-anchor="middle" x="737" y="-164.8" font-family="Times,serif" font-size="14.00">AppModule</text>
</g>
<!-- AppComponent&#45;&gt;AppModule -->
<g id="edge1" class="edge">
<title>AppComponent&#45;&gt;AppModule</title>
<path fill="none" stroke="black" d="M1023,-122.27C1023,-140.56 1023,-166 1023,-166 1023,-166 788.89,-166 788.89,-166"/>
<polygon fill="black" stroke="black" points="788.89,-162.5 778.89,-166 788.89,-169.5 788.89,-162.5"/>
</g>
<!-- CancelComponent -->
<g id="node2" class="node">
<title>CancelComponent</title>
<polygon fill="#ffffb3" stroke="black" points="952.2,-122 831.8,-122 831.8,-86 952.2,-86 952.2,-122"/>
<text text-anchor="middle" x="892" y="-99.8" font-family="Times,serif" font-size="14.00">CancelComponent</text>
</g>
<!-- CancelComponent&#45;&gt;AppModule -->
<g id="edge2" class="edge">
<title>CancelComponent&#45;&gt;AppModule</title>
<path fill="none" stroke="black" d="M892,-122.01C892,-138.05 892,-159 892,-159 892,-159 788.95,-159 788.95,-159"/>
<polygon fill="black" stroke="black" points="788.95,-155.5 778.95,-159 788.95,-162.5 788.95,-155.5"/>
</g>
<!-- DeactivationComponent -->
<g id="node3" class="node">
<title>DeactivationComponent</title>
<polygon fill="#ffffb3" stroke="black" points="813.36,-122 660.64,-122 660.64,-86 813.36,-86 813.36,-122"/>
<text text-anchor="middle" x="737" y="-99.8" font-family="Times,serif" font-size="14.00">DeactivationComponent</text>
</g>
<!-- DeactivationComponent&#45;&gt;AppModule -->
<g id="edge3" class="edge">
<title>DeactivationComponent&#45;&gt;AppModule</title>
<path fill="none" stroke="black" d="M737,-122.11C737,-122.11 737,-140.99 737,-140.99"/>
<polygon fill="black" stroke="black" points="733.5,-140.99 737,-150.99 740.5,-140.99 733.5,-140.99"/>
</g>
<!-- LoginComponent -->
<g id="node4" class="node">
<title>LoginComponent</title>
<polygon fill="#ffffb3" stroke="black" points="642.28,-122 527.72,-122 527.72,-86 642.28,-86 642.28,-122"/>
<text text-anchor="middle" x="585" y="-99.8" font-family="Times,serif" font-size="14.00">LoginComponent</text>
</g>
<!-- LoginComponent&#45;&gt;AppModule -->
<g id="edge4" class="edge">
<title>LoginComponent&#45;&gt;AppModule</title>
<path fill="none" stroke="black" d="M585,-122.01C585,-138.05 585,-159 585,-159 585,-159 685.06,-159 685.06,-159"/>
<polygon fill="black" stroke="black" points="685.06,-162.5 695.06,-159 685.06,-155.5 685.06,-162.5"/>
</g>
<!-- PortingComponent -->
<g id="node5" class="node">
<title>PortingComponent</title>
<polygon fill="#ffffb3" stroke="black" points="509.06,-122 386.94,-122 386.94,-86 509.06,-86 509.06,-122"/>
<text text-anchor="middle" x="448" y="-99.8" font-family="Times,serif" font-size="14.00">PortingComponent</text>
</g>
<!-- PortingComponent&#45;&gt;AppModule -->
<g id="edge5" class="edge">
<title>PortingComponent&#45;&gt;AppModule</title>
<path fill="none" stroke="black" d="M448,-122.27C448,-140.56 448,-166 448,-166 448,-166 685.29,-166 685.29,-166"/>
<polygon fill="black" stroke="black" points="685.29,-169.5 695.29,-166 685.29,-162.5 685.29,-169.5"/>
</g>
<!-- SubscribersComponent -->
<g id="node6" class="node">
<title>SubscribersComponent</title>
<polygon fill="#ffffb3" stroke="black" points="368.15,-122 221.85,-122 221.85,-86 368.15,-86 368.15,-122"/>
<text text-anchor="middle" x="295" y="-99.8" font-family="Times,serif" font-size="14.00">SubscribersComponent</text>
</g>
<!-- SubscribersComponent&#45;&gt;AppModule -->
<g id="edge6" class="edge">
<title>SubscribersComponent&#45;&gt;AppModule</title>
<path fill="none" stroke="black" d="M295,-122.13C295,-142.57 295,-173 295,-173 295,-173 685.02,-173 685.02,-173"/>
<polygon fill="black" stroke="black" points="685.02,-176.5 695.02,-173 685.02,-169.5 685.02,-176.5"/>
</g>
<!-- ValidateRequestsComponent -->
<g id="node7" class="node">
<title>ValidateRequestsComponent</title>
<polygon fill="#ffffb3" stroke="black" points="203.8,-122 24.2,-122 24.2,-86 203.8,-86 203.8,-122"/>
<text text-anchor="middle" x="114" y="-99.8" font-family="Times,serif" font-size="14.00">ValidateRequestsComponent</text>
</g>
<!-- ValidateRequestsComponent&#45;&gt;AppModule -->
<g id="edge7" class="edge">
<title>ValidateRequestsComponent&#45;&gt;AppModule</title>
<path fill="none" stroke="black" d="M114,-122.01C114,-144.49 114,-180 114,-180 114,-180 685.16,-180 685.16,-180"/>
<polygon fill="black" stroke="black" points="685.16,-183.5 695.16,-180 685.16,-176.5 685.16,-183.5"/>
</g>
<!-- AppComponent  -->
<g id="node10" class="node">
<title>AppComponent </title>
<polygon fill="#80b1d3" stroke="black" points="791.44,-252 682.56,-252 682.56,-216 791.44,-216 791.44,-252"/>
<text text-anchor="middle" x="737" y="-229.8" font-family="Times,serif" font-size="14.00">AppComponent </text>
</g>
<!-- AppModule&#45;&gt;AppComponent  -->
<g id="edge9" class="edge">
<title>AppModule&#45;&gt;AppComponent </title>
<path fill="none" stroke="black" stroke-dasharray="1,5" d="M737,-187.11C737,-187.11 737,-205.99 737,-205.99"/>
<polygon fill="black" stroke="black" points="733.5,-205.99 737,-215.99 740.5,-205.99 733.5,-205.99"/>
</g>
<!-- AppRoutingModule -->
<g id="node9" class="node">
<title>AppRoutingModule</title>
<polygon fill="#8dd3c7" stroke="black" points="1452.27,-122 1449.27,-126 1428.27,-126 1425.27,-122 1323.73,-122 1323.73,-86 1452.27,-86 1452.27,-122"/>
<text text-anchor="middle" x="1388" y="-99.8" font-family="Times,serif" font-size="14.00">AppRoutingModule</text>
</g>
<!-- AppRoutingModule&#45;&gt;AppModule -->
<g id="edge8" class="edge">
<title>AppRoutingModule&#45;&gt;AppModule</title>
<path fill="none" stroke="black" d="M1388,-122.01C1388,-144.49 1388,-180 1388,-180 1388,-180 788.71,-180 788.71,-180"/>
<polygon fill="black" stroke="black" points="788.71,-176.5 778.71,-180 788.71,-183.5 788.71,-176.5"/>
</g>
<!-- HttpInterceptorService -->
<g id="node11" class="node">
<title>HttpInterceptorService</title>
<ellipse fill="#fdb462" stroke="black" cx="1200" cy="-104" rx="99.53" ry="18"/>
<text text-anchor="middle" x="1200" y="-99.8" font-family="Times,serif" font-size="14.00">HttpInterceptorService</text>
</g>
<!-- HttpInterceptorService&#45;&gt;AppModule -->
<g id="edge10" class="edge">
<title>HttpInterceptorService&#45;&gt;AppModule</title>
<path fill="none" stroke="black" d="M1200,-122.13C1200,-142.57 1200,-173 1200,-173 1200,-173 788.9,-173 788.9,-173"/>
<polygon fill="black" stroke="black" points="788.9,-169.5 778.9,-173 788.9,-176.5 788.9,-169.5"/>
</g>
</g>
</svg>
